<svg id="svg" version="1.1" xmlns="http://www.w3.org/2000/svg" xmlns:xlink="http://www.w3.org/1999/xlink" width="400" height="262.59999999999997" viewBox="0, 0, 400,262.59999999999997"><g id="svgg"><path id="path0" d="M143.800 131.300 L 143.800 208.000 152.900 208.000 L 162.000 208.000 162.000 193.900 C 162.000 186.145,162.072 179.800,162.159 179.800 C 162.247 179.800,162.494 179.664,162.709 179.497 C 163.265 179.065,165.625 177.383,167.500 176.081 C 168.380 175.471,169.910 174.393,170.900 173.686 C 171.890 172.979,173.420 171.898,174.300 171.282 C 175.180 170.667,176.260 169.901,176.700 169.579 C 177.140 169.258,178.108 168.579,178.850 168.071 C 179.593 167.563,180.200 167.069,180.200 166.973 C 180.200 166.878,180.276 166.823,180.369 166.850 C 180.463 166.878,181.250 166.396,182.119 165.780 C 184.025 164.429,186.872 162.417,189.257 160.737 C 190.223 160.057,191.780 158.938,192.717 158.250 C 193.654 157.563,194.460 157.000,194.508 157.000 C 194.555 157.000,195.311 156.483,196.187 155.850 C 197.063 155.218,198.482 154.209,199.340 153.610 C 200.198 153.010,201.440 152.134,202.100 151.664 C 205.465 149.265,206.578 148.480,207.400 147.925 C 208.231 147.365,210.580 145.652,211.142 145.196 C 211.274 145.088,211.431 145.000,211.490 145.000 C 211.549 145.000,212.305 144.482,213.169 143.850 C 214.034 143.218,214.912 142.586,215.120 142.446 C 215.329 142.307,216.343 141.587,217.373 140.846 C 218.403 140.106,219.395 139.410,219.578 139.300 C 219.760 139.190,220.977 138.335,222.281 137.400 C 223.585 136.465,224.978 135.483,225.376 135.218 C 227.429 133.851,229.606 132.200,229.355 132.200 C 229.198 132.200,228.858 131.975,228.600 131.700 C 228.342 131.425,228.057 131.200,227.967 131.200 C 227.878 131.200,227.286 130.811,226.652 130.335 C 224.726 128.888,221.628 126.800,221.407 126.800 C 221.293 126.800,221.200 126.727,221.200 126.638 C 221.200 126.502,217.637 123.937,216.563 123.300 C 216.377 123.190,215.059 122.268,213.633 121.252 C 212.207 120.236,210.378 118.952,209.570 118.399 C 208.761 117.845,207.065 116.670,205.800 115.788 C 204.535 114.905,203.050 113.876,202.500 113.501 C 201.950 113.126,200.934 112.410,200.242 111.910 C 199.551 111.409,198.944 111.000,198.895 111.000 C 198.845 111.000,198.646 110.866,198.452 110.702 C 198.067 110.375,195.082 108.283,192.400 106.460 C 189.917 104.772,187.138 102.836,186.845 102.589 C 186.705 102.471,185.490 101.620,184.145 100.698 C 182.800 99.776,181.582 98.917,181.437 98.790 C 181.111 98.504,181.141 98.457,180.735 99.900 C 180.550 100.560,180.004 102.495,179.522 104.200 C 179.040 105.905,178.043 109.460,177.307 112.100 C 176.570 114.740,175.808 117.450,175.612 118.122 L 175.256 119.343 176.178 119.959 C 176.685 120.298,177.616 120.939,178.248 121.385 C 180.452 122.939,181.325 123.547,184.900 126.017 C 186.880 127.386,188.887 128.774,189.359 129.103 C 189.832 129.431,191.160 130.344,192.311 131.132 L 194.404 132.564 193.252 133.340 C 192.618 133.767,191.535 134.517,190.845 135.008 C 189.059 136.278,188.343 136.778,188.000 136.999 C 187.528 137.302,184.837 139.180,180.600 142.163 C 178.455 143.673,175.665 145.623,174.400 146.497 C 173.135 147.370,171.996 148.178,171.869 148.292 C 171.742 148.406,170.154 149.517,168.341 150.760 L 165.044 153.020 164.310 155.360 C 163.907 156.647,163.304 158.600,162.970 159.700 C 162.636 160.800,162.288 161.925,162.197 162.200 C 162.106 162.475,162.024 138.378,162.016 108.650 L 162.000 54.600 152.900 54.600 L 143.800 54.600 143.800 131.300 M126.600 80.965 C 126.325 81.138,122.783 83.579,118.729 86.390 C 110.204 92.300,109.185 93.003,108.100 93.727 C 107.660 94.020,107.255 94.314,107.200 94.380 C 107.145 94.446,106.947 94.590,106.759 94.700 C 106.433 94.891,102.399 97.661,100.300 99.135 C 98.975 100.065,90.180 106.169,87.900 107.741 C 85.154 109.634,82.546 111.445,79.900 113.299 C 78.580 114.224,76.780 115.475,75.900 116.080 C 74.272 117.199,70.801 119.614,68.337 121.343 C 67.587 121.870,66.764 122.435,66.508 122.600 C 64.832 123.681,64.000 124.289,64.000 124.434 C 64.000 124.525,63.900 124.600,63.779 124.600 C 63.657 124.600,63.230 124.855,62.829 125.167 C 62.428 125.478,61.965 125.793,61.800 125.865 C 61.635 125.937,60.870 126.448,60.100 127.001 C 59.330 127.555,57.740 128.655,56.567 129.446 L 54.434 130.885 54.967 131.238 C 55.260 131.433,56.094 132.021,56.821 132.546 C 57.547 133.071,59.154 134.220,60.393 135.100 C 61.631 135.980,62.891 136.880,63.194 137.100 C 63.496 137.320,64.004 137.677,64.322 137.894 C 64.640 138.111,65.215 138.524,65.600 138.812 C 67.603 140.312,70.375 142.200,70.574 142.200 C 70.698 142.200,70.800 142.281,70.800 142.379 C 70.800 142.478,71.272 142.858,71.850 143.225 C 72.427 143.591,72.990 143.988,73.100 144.107 C 73.394 144.424,74.752 145.400,74.900 145.400 C 74.970 145.400,75.358 145.669,75.763 145.999 C 76.169 146.328,77.400 147.224,78.500 147.989 C 80.884 149.647,81.611 150.168,83.635 151.665 C 84.479 152.289,85.228 152.800,85.299 152.800 C 85.369 152.800,85.758 153.069,86.163 153.399 C 86.569 153.728,87.800 154.624,88.900 155.389 C 91.284 157.047,92.011 157.568,94.035 159.065 C 94.879 159.689,95.628 160.200,95.699 160.200 C 95.769 160.200,96.158 160.469,96.563 160.799 C 96.969 161.128,98.200 162.024,99.300 162.789 C 101.684 164.447,102.411 164.968,104.435 166.465 C 105.279 167.089,106.028 167.600,106.099 167.600 C 106.169 167.600,106.558 167.869,106.963 168.199 C 107.369 168.528,108.600 169.424,109.700 170.189 C 112.084 171.847,112.811 172.368,114.835 173.865 C 115.679 174.489,116.428 175.000,116.499 175.000 C 116.569 175.000,116.958 175.269,117.363 175.599 C 117.769 175.928,119.000 176.824,120.100 177.589 C 122.484 179.247,123.211 179.768,125.235 181.265 C 126.079 181.889,126.867 182.400,126.985 182.400 C 127.136 182.400,127.200 178.683,127.200 169.916 L 127.200 157.433 126.450 156.973 C 126.038 156.720,125.545 156.370,125.355 156.196 C 125.164 156.021,124.219 155.343,123.255 154.689 C 122.290 154.035,121.381 153.388,121.236 153.250 C 121.090 153.113,120.905 153.000,120.823 153.000 C 120.742 153.000,120.501 152.840,120.288 152.644 C 120.074 152.448,119.315 151.885,118.600 151.394 C 117.885 150.902,117.200 150.410,117.078 150.300 C 116.956 150.190,115.606 149.216,114.078 148.135 C 109.630 144.988,105.130 141.816,104.734 141.548 C 104.533 141.412,103.813 140.888,103.134 140.385 C 102.455 139.882,101.270 139.034,100.500 138.502 C 99.730 137.969,98.785 137.290,98.400 136.993 C 98.015 136.696,96.170 135.368,94.300 134.041 C 92.430 132.715,90.730 131.502,90.522 131.347 C 90.172 131.085,90.332 130.937,92.722 129.308 C 94.140 128.342,95.330 127.472,95.367 127.376 C 95.403 127.279,95.524 127.200,95.635 127.200 C 95.747 127.200,96.497 126.728,97.303 126.150 C 99.084 124.874,100.722 123.735,104.878 120.882 C 106.626 119.682,108.606 118.321,109.278 117.857 C 109.950 117.393,111.085 116.622,111.800 116.143 C 112.515 115.664,113.235 115.140,113.400 114.979 C 113.565 114.817,114.060 114.465,114.500 114.197 C 115.988 113.289,123.899 107.757,123.967 107.578 C 124.003 107.480,124.138 107.398,124.267 107.395 C 124.395 107.392,125.028 106.991,125.673 106.504 C 126.318 106.017,126.926 105.591,127.024 105.559 C 127.128 105.524,127.181 100.252,127.152 93.075 L 127.100 80.651 126.600 80.965 M233.883 86.900 C 233.829 87.120,233.810 88.380,233.842 89.700 L 233.900 92.100 245.059 92.152 L 256.218 92.203 256.186 111.652 C 256.169 122.348,256.074 131.685,255.976 132.400 C 255.771 133.893,254.998 136.668,254.760 136.767 C 254.672 136.803,254.600 137.006,254.600 137.217 C 254.600 137.428,254.520 137.600,254.423 137.600 C 254.326 137.600,254.194 137.758,254.129 137.950 C 253.700 139.227,251.137 141.408,249.743 141.682 C 249.499 141.730,248.715 141.926,248.000 142.119 C 246.394 142.551,241.978 142.598,241.450 142.189 C 241.423 142.167,241.332 142.135,241.250 142.117 C 239.979 141.835,237.156 140.585,236.650 140.078 C 236.497 139.925,236.302 139.800,236.218 139.800 C 235.989 139.800,232.600 136.342,232.228 135.729 C 231.770 134.973,231.603 135.045,230.388 136.525 C 229.789 137.254,229.010 138.176,228.655 138.575 C 228.300 138.974,228.007 139.384,228.005 139.488 C 227.998 139.745,228.864 140.997,229.050 140.999 C 229.132 140.999,229.200 141.121,229.200 141.270 C 229.200 141.574,231.137 143.465,232.200 144.198 C 232.585 144.464,232.945 144.735,233.000 144.800 C 233.138 144.966,235.180 146.200,235.316 146.200 C 235.376 146.200,235.937 146.434,236.563 146.721 C 237.188 147.007,237.835 147.269,238.000 147.304 C 238.766 147.463,240.340 147.863,240.700 147.991 C 242.307 148.558,248.091 148.354,250.750 147.637 C 251.548 147.422,252.200 147.291,252.200 147.347 C 252.200 147.403,252.320 147.349,252.467 147.227 C 252.614 147.105,253.105 146.875,253.558 146.715 C 256.564 145.654,259.684 142.371,261.129 138.749 C 261.674 137.381,261.689 137.328,262.103 135.300 C 262.260 134.530,262.454 133.675,262.534 133.400 C 262.733 132.718,262.853 86.600,262.657 86.600 C 262.571 86.600,256.084 86.577,248.241 86.550 C 234.128 86.501,233.981 86.504,233.883 86.900 M282.200 86.582 C 281.935 86.743,281.906 90.333,281.951 117.288 L 282.003 147.813 296.751 147.748 C 304.863 147.713,311.725 147.626,312.000 147.556 C 312.275 147.486,312.905 147.377,313.400 147.315 C 313.895 147.253,314.603 147.115,314.973 147.008 C 315.342 146.902,315.702 146.826,315.773 146.840 C 316.365 146.958,320.346 145.680,322.600 144.648 C 324.905 143.593,326.318 142.707,328.997 140.638 C 329.857 139.975,333.211 136.656,333.609 136.075 C 333.769 135.842,334.300 135.079,334.788 134.380 C 335.740 133.018,337.697 129.400,337.481 129.400 C 337.410 129.400,337.440 129.287,337.549 129.150 C 337.659 129.013,337.856 128.540,337.988 128.100 C 338.120 127.660,338.299 127.120,338.386 126.900 C 338.724 126.046,339.010 125.030,338.957 124.869 C 338.926 124.776,339.005 124.340,339.133 123.900 C 339.640 122.144,339.755 120.731,339.703 116.900 C 339.673 114.700,339.594 112.675,339.526 112.400 C 339.329 111.599,339.238 111.100,339.101 110.068 C 339.030 109.536,338.891 108.920,338.791 108.700 C 338.692 108.480,338.341 107.476,338.013 106.470 C 337.384 104.543,336.471 102.480,336.050 102.036 C 335.913 101.890,335.800 101.684,335.800 101.576 C 335.800 101.159,333.412 97.773,332.481 96.868 C 332.106 96.505,331.800 96.151,331.800 96.082 C 331.800 95.923,329.945 94.205,329.770 94.202 C 329.698 94.201,329.338 93.898,328.969 93.529 C 328.251 92.811,326.157 91.400,325.810 91.400 C 325.694 91.400,325.600 91.320,325.600 91.223 C 325.600 91.126,325.443 90.997,325.250 90.936 C 325.058 90.875,324.585 90.644,324.200 90.423 C 322.854 89.649,320.020 88.400,319.609 88.400 C 319.381 88.400,319.038 88.315,318.847 88.212 C 318.553 88.053,317.532 87.775,317.200 87.764 C 317.145 87.762,316.950 87.680,316.766 87.582 C 316.453 87.414,314.503 87.077,312.700 86.879 C 312.260 86.831,311.585 86.733,311.200 86.662 C 310.074 86.454,282.536 86.378,282.200 86.582 M310.800 92.514 C 313.735 92.873,314.407 92.986,314.900 93.205 C 315.221 93.347,317.181 93.945,317.600 94.028 C 317.727 94.053,318.548 94.373,319.200 94.651 C 319.475 94.769,319.768 94.850,319.850 94.832 C 319.933 94.815,320.000 94.884,320.000 94.987 C 320.000 95.089,320.178 95.229,320.395 95.298 C 320.612 95.367,321.240 95.733,321.790 96.112 C 322.340 96.490,322.866 96.800,322.957 96.800 C 323.049 96.800,323.300 96.958,323.514 97.150 C 323.729 97.343,324.317 97.832,324.822 98.238 C 326.202 99.349,327.361 100.602,329.058 102.815 C 329.422 103.289,329.811 103.972,330.472 105.300 C 330.801 105.960,331.124 106.545,331.191 106.600 C 331.301 106.692,332.062 108.924,332.089 109.233 C 332.095 109.307,332.168 109.434,332.250 109.517 C 332.332 109.599,332.400 109.916,332.400 110.222 C 332.400 110.527,332.471 110.820,332.558 110.874 C 332.645 110.928,332.736 111.316,332.760 111.736 C 332.784 112.156,332.902 113.132,333.022 113.905 C 333.226 115.215,333.174 120.195,332.948 121.100 C 332.893 121.320,332.737 122.175,332.601 123.000 C 332.465 123.825,332.288 124.590,332.208 124.700 C 332.074 124.883,331.514 126.767,331.524 127.000 C 331.527 127.055,331.410 127.219,331.264 127.364 C 331.119 127.510,331.000 127.802,331.000 128.014 C 331.000 128.226,330.910 128.400,330.800 128.400 C 330.690 128.400,330.621 128.468,330.648 128.550 C 330.920 129.407,326.259 135.033,323.897 136.700 C 323.273 137.140,322.577 137.657,322.351 137.850 C 322.124 138.042,321.825 138.200,321.686 138.200 C 321.547 138.200,321.403 138.270,321.367 138.356 C 321.041 139.115,314.008 141.492,311.653 141.638 C 311.349 141.657,311.008 141.740,310.896 141.822 C 310.784 141.905,305.766 141.956,299.745 141.936 L 288.799 141.900 288.749 117.043 L 288.700 92.185 298.600 92.209 C 305.759 92.226,309.137 92.310,310.800 92.514 " stroke="none" fill="#ecf4f4" fill-rule="evenodd"></path><path id="path1" d="M241.450 86.550 C 245.272 86.580,251.527 86.580,255.350 86.550 C 259.173 86.520,256.045 86.495,248.400 86.495 C 240.755 86.495,237.628 86.520,241.450 86.550 M281.897 117.300 C 281.897 134.020,281.921 140.830,281.950 132.434 C 281.979 124.038,281.979 110.358,281.950 102.034 C 281.921 93.710,281.897 100.580,281.897 117.300 M256.096 110.600 C 256.096 120.775,256.120 124.938,256.150 119.850 C 256.180 114.762,256.180 106.437,256.150 101.350 C 256.120 96.263,256.096 100.425,256.096 110.600 M293.664 92.350 C 296.174 92.382,300.224 92.382,302.664 92.350 C 305.104 92.318,303.050 92.292,298.100 92.292 C 293.150 92.292,291.154 92.318,293.664 92.350 " stroke="none" fill="#f0f4f4" fill-rule="evenodd"></path><path id="path2" d="M241.450 86.550 C 245.272 86.580,251.527 86.580,255.350 86.550 C 259.173 86.520,256.045 86.495,248.400 86.495 C 240.755 86.495,237.628 86.520,241.450 86.550 M281.897 117.300 C 281.897 134.020,281.921 140.830,281.950 132.434 C 281.979 124.038,281.979 110.358,281.950 102.034 C 281.921 93.710,281.897 100.580,281.897 117.300 M256.096 110.600 C 256.096 120.775,256.120 124.938,256.150 119.850 C 256.180 114.762,256.180 106.437,256.150 101.350 C 256.120 96.263,256.096 100.425,256.096 110.600 M293.664 92.350 C 296.174 92.382,300.224 92.382,302.664 92.350 C 305.104 92.318,303.050 92.292,298.100 92.292 C 293.150 92.292,291.154 92.318,293.664 92.350 " stroke="none" fill="#f0f4f4" fill-rule="evenodd"></path><path id="path3" d="M241.450 86.550 C 245.272 86.580,251.527 86.580,255.350 86.550 C 259.173 86.520,256.045 86.495,248.400 86.495 C 240.755 86.495,237.628 86.520,241.450 86.550 M281.897 117.300 C 281.897 134.020,281.921 140.830,281.950 132.434 C 281.979 124.038,281.979 110.358,281.950 102.034 C 281.921 93.710,281.897 100.580,281.897 117.300 M256.096 110.600 C 256.096 120.775,256.120 124.938,256.150 119.850 C 256.180 114.762,256.180 106.437,256.150 101.350 C 256.120 96.263,256.096 100.425,256.096 110.600 M293.664 92.350 C 296.174 92.382,300.224 92.382,302.664 92.350 C 305.104 92.318,303.050 92.292,298.100 92.292 C 293.150 92.292,291.154 92.318,293.664 92.350 " stroke="none" fill="#f0f4f4" fill-rule="evenodd"></path><path id="path4" d="M241.450 86.550 C 245.272 86.580,251.527 86.580,255.350 86.550 C 259.173 86.520,256.045 86.495,248.400 86.495 C 240.755 86.495,237.628 86.520,241.450 86.550 M281.897 117.300 C 281.897 134.020,281.921 140.830,281.950 132.434 C 281.979 124.038,281.979 110.358,281.950 102.034 C 281.921 93.710,281.897 100.580,281.897 117.300 M256.096 110.600 C 256.096 120.775,256.120 124.938,256.150 119.850 C 256.180 114.762,256.180 106.437,256.150 101.350 C 256.120 96.263,256.096 100.425,256.096 110.600 M293.664 92.350 C 296.174 92.382,300.224 92.382,302.664 92.350 C 305.104 92.318,303.050 92.292,298.100 92.292 C 293.150 92.292,291.154 92.318,293.664 92.350 " stroke="none" fill="#f0f4f4" fill-rule="evenodd"></path></g></svg>